<?xml version="1.0" encoding="utf-8"?>
<!-- Generator: Adobe Illustrator 17.1.0, SVG Export Plug-In . SVG Version: 6.00 Build 0)  -->
<!DOCTYPE svg PUBLIC "-//W3C//DTD SVG 1.1//EN" "http://www.w3.org/Graphics/SVG/1.1/DTD/svg11.dtd">
<svg version="1.1" id="Layer_1" xmlns="http://www.w3.org/2000/svg" xmlns:xlink="http://www.w3.org/1999/xlink" x="0px" y="0px"
	 viewBox="288.2 468.3 612 612" enable-background="new 288.2 468.3 612 612" xml:space="preserve">
<path d="M900.2,774.3c0-168.5-137.5-306-306-306s-306,137.5-306,306s137.5,306,306,306C764.4,1078.6,900.2,942.8,900.2,774.3z
	 M571.9,862l-96.3-96.3c-15.5-15.5-15.5-41.3,0-56.7s41.3-15.5,56.7,0l67,67l67-67c15.5-15.5,41.3-15.5,56.7,0
	c15.5,15.5,15.5,41.3,0,56.7L626.9,862c-1.7,1.7-3.4,3.4-6.9,5.2C608,877.4,585.6,875.7,571.9,862z"/>
</svg>
