<?xml version="1.0" encoding="utf-8"?>
<!-- Generator: Adobe Illustrator 17.1.0, SVG Export Plug-In . SVG Version: 6.00 Build 0)  -->
<!DOCTYPE svg PUBLIC "-//W3C//DTD SVG 1.1//EN" "http://www.w3.org/Graphics/SVG/1.1/DTD/svg11.dtd">
<svg version="1.1" id="Layer_1" xmlns="http://www.w3.org/2000/svg" xmlns:xlink="http://www.w3.org/1999/xlink" x="0px" y="0px"
	 viewBox="288.6 468.3 612 612" enable-background="new 288.6 468.3 612 612" xml:space="preserve">
<path d="M594.6,468.3c-168.5,0-306,137.5-306,306s137.5,306,306,306s306-137.5,306-306C898.9,604.1,763.1,468.3,594.6,468.3z
	 M682.3,796.6l-94.6,96.3c-15.5,15.5-41.3,15.5-56.7,0s-15.5-41.3,0-56.7l67-67l-67-67c-15.5-15.5-15.5-41.3,0-56.7
	s41.3-15.5,56.7,0l96.3,96.3c1.7,1.7,3.4,3.4,5.2,6.9C697.7,760.5,696,782.9,682.3,796.6z"/>
</svg>
