<?xml version="1.0" encoding="utf-8"?>
<!-- Generator: Adobe Illustrator 17.1.0, SVG Export Plug-In . SVG Version: 6.00 Build 0)  -->
<!DOCTYPE svg PUBLIC "-//W3C//DTD SVG 1.1//EN" "http://www.w3.org/Graphics/SVG/1.1/DTD/svg11.dtd">
<svg version="1.1" id="Layer_1" xmlns="http://www.w3.org/2000/svg" xmlns:xlink="http://www.w3.org/1999/xlink" x="0px" y="0px"
	 viewBox="288.6 468.2 612 612" enable-background="new 288.6 468.2 612 612" xml:space="preserve">
<path d="M594.6,1080.2c168.5,0,306-137.5,306-306s-137.5-306-306-306s-306,137.5-306,306C290.3,944.4,426.1,1080.2,594.6,1080.2z
	 M505.2,751.9l96.3-96.3c15.5-15.5,41.3-15.5,56.7,0s15.5,41.3,0,56.7l-67,67l67,67c15.5,15.5,15.5,41.3,0,56.7
	c-15.5,15.5-41.3,15.5-56.7,0l-96.3-96.3c-1.7-1.7-3.4-3.4-5.2-6.9C489.7,788,491.5,765.6,505.2,751.9z"/>
</svg>
