<?xml version="1.0" encoding="utf-8"?>
<!-- Generator: Adobe Illustrator 17.1.0, SVG Export Plug-In . SVG Version: 6.00 Build 0)  -->
<!DOCTYPE svg PUBLIC "-//W3C//DTD SVG 1.1//EN" "http://www.w3.org/Graphics/SVG/1.1/DTD/svg11.dtd">
<svg version="1.1" id="Layer_1" xmlns="http://www.w3.org/2000/svg" xmlns:xlink="http://www.w3.org/1999/xlink" x="0px" y="0px"
	 viewBox="288.9 468.3 612 612" enable-background="new 288.9 468.3 612 612" xml:space="preserve">
<path d="M288.9,774.3c0,168.5,137.5,306,306,306s306-137.5,306-306s-137.5-306-306-306C426.4,468.3,288.9,604.1,288.9,774.3z
	 M617.2,684.9l96.3,96.3c15.5,15.5,15.5,41.3,0,56.7s-41.3,15.5-56.7,0l-67-67l-67,67c-15.5,15.5-41.3,15.5-56.7,0
	s-15.5-41.3,0-56.7l96.3-96.3c1.7-1.7,3.4-3.4,6.9-5.2C582.9,669.4,603.5,671.2,617.2,684.9z"/>
</svg>
