<?xml version="1.0" encoding="utf-8"?>
<!-- Generator: Adobe Illustrator 17.1.0, SVG Export Plug-In . SVG Version: 6.00 Build 0)  -->
<!DOCTYPE svg PUBLIC "-//W3C//DTD SVG 1.1//EN" "http://www.w3.org/Graphics/SVG/1.1/DTD/svg11.dtd">
<svg version="1.1" id="Layer_1" xmlns="http://www.w3.org/2000/svg" xmlns:xlink="http://www.w3.org/1999/xlink" x="0px" y="0px"
	 viewBox="283.8 399.8 612 711.4" enable-background="new 283.8 399.8 612 711.4" xml:space="preserve">
<path fill="#030202" d="M876.4,753.9c-28-28-73-28-101,0L662.1,867.3V471.2c0-38.8-31.1-71.5-71.5-71.5c-38.8,0-71.5,31.1-71.5,71.5
	v396.1L405.8,753.9c-28-28-73-28-101,0c-28,28-28,73,0,101l234.5,234.5l0,0c3.1,3.1,7.8,6.2,10.9,9.3l0,0
	c10.9,7.8,24.9,12.4,38.8,12.4c14,0,28-4.7,38.8-12.4l0,0c4.7-3.1,7.8-6.2,10.9-9.3l0,0l234.5-234.5
	C902.8,827,902.8,781.9,876.4,753.9z"/>
</svg>
