<?xml version="1.0" encoding="utf-8"?>
<!-- Generator: Adobe Illustrator 17.1.0, SVG Export Plug-In . SVG Version: 6.00 Build 0)  -->
<!DOCTYPE svg PUBLIC "-//W3C//DTD SVG 1.1//EN" "http://www.w3.org/Graphics/SVG/1.1/DTD/svg11.dtd">
<svg version="1.1" id="Layer_1" xmlns="http://www.w3.org/2000/svg" xmlns:xlink="http://www.w3.org/1999/xlink" x="0px" y="0px"
	 viewBox="281.6 495.5 612 525.1" enable-background="new 281.6 495.5 612 525.1" xml:space="preserve">
<path fill="#030202" d="M830.8,697.9H490.1l97.5-97.5c24.1-24.1,24.1-62.8,0-86.9s-62.8-24.1-86.9,0L300.3,715.3l0,0
	c-2.7,2.7-5.3,6.7-8,9.4l0,0c-6.7,9.4-10.7,21.4-10.7,33.4s4,24.1,10.7,33.4l0,0c2.7,4,5.3,6.7,8,9.4l0,0l201.8,201.8
	c24.1,24.1,62.8,24.1,86.9,0s24.1-62.8,0-86.9l-97.5-97.5h340.7c33.4,0,61.5-26.7,61.5-61.5C892.3,724.6,864.2,697.9,830.8,697.9z"
	/>
</svg>
