<?xml version="1.0" encoding="utf-8"?>
<!-- Generator: Adobe Illustrator 17.1.0, SVG Export Plug-In . SVG Version: 6.00 Build 0)  -->
<!DOCTYPE svg PUBLIC "-//W3C//DTD SVG 1.1//EN" "http://www.w3.org/Graphics/SVG/1.1/DTD/svg11.dtd">
<svg version="1.1" id="Layer_1" xmlns="http://www.w3.org/2000/svg" xmlns:xlink="http://www.w3.org/1999/xlink" x="0px" y="0px"
	 viewBox="281.8 494.1 612 527.8" enable-background="new 281.8 494.1 612 527.8" xml:space="preserve">
<path fill="#030202" d="M883.1,791.4L883.1,791.4c6.7-9.4,10.7-21.4,10.7-33.4s-4-24.1-10.7-33.4l0,0c-2.7-4-5.3-6.7-8-9.4l0,0
	L673.3,512.2c-24.1-24.1-62.8-24.1-86.9,0s-24.1,62.8,0,86.9l97.5,97.5H343.3c-33.4,0-61.5,26.7-61.5,61.5s26.7,61.5,61.5,61.5
	h342.1L587.8,917c-24.1,24.1-24.1,62.8,0,86.9s62.8,24.1,86.9,0l201.8-201.8l0,0C877.8,796.8,880.4,794.1,883.1,791.4z"/>
</svg>
