<?xml version="1.0" encoding="utf-8"?>
<!-- Generator: Adobe Illustrator 17.1.0, SVG Export Plug-In . SVG Version: 6.00 Build 0)  -->
<!DOCTYPE svg PUBLIC "-//W3C//DTD SVG 1.1//EN" "http://www.w3.org/Graphics/SVG/1.1/DTD/svg11.dtd">
<svg version="1.1" id="Layer_1" xmlns="http://www.w3.org/2000/svg" xmlns:xlink="http://www.w3.org/1999/xlink" x="0px" y="0px"
	 viewBox="290.2 463.5 611.2 622.7" enable-background="new 290.2 463.5 611.2 622.7" xml:space="preserve">
<path fill="#030202" d="M712.1,774.8l167.8-167.8c30.5-30.5,28.6-82-5.7-116.3c-34.3-34.3-85.8-36.2-116.3-5.7L595.8,647.1
	L433.8,485.1c-30.5-30.5-82-28.6-116.3,5.7c-34.3,34.3-36.2,85.8-5.7,116.3l167.8,167.8L311.8,942.6c-30.5,30.5-28.6,82,5.7,116.3
	c34.3,34.3,85.8,36.2,116.3,5.7l162.1-162.1l162.1,162.1c30.5,30.5,82,28.6,116.3-5.7c34.3-34.3,36.2-85.8,5.7-116.3L712.1,774.8z"
	/>
</svg>
