<?xml version="1.0" encoding="utf-8"?>
<!-- Generator: Adobe Illustrator 17.1.0, SVG Export Plug-In . SVG Version: 6.00 Build 0)  -->
<!DOCTYPE svg PUBLIC "-//W3C//DTD SVG 1.1//EN" "http://www.w3.org/Graphics/SVG/1.1/DTD/svg11.dtd">
<svg version="1.1" id="Layer_1" xmlns="http://www.w3.org/2000/svg" xmlns:xlink="http://www.w3.org/1999/xlink" x="0px" y="0px"
	 viewBox="291.4 411.1 612 724.9" enable-background="new 291.4 411.1 612 724.9" xml:space="preserve">
<g>
	<path fill="#090405" d="M899.4,486.3H618.2v-49.5c0-13.9-11.9-25.7-25.7-25.7c-13.9,0-25.7,11.9-25.7,25.7v49.5H291.4v417.9h188.2
		l-73.3,192.1c-5.9,15.8,2,31.7,17.8,37.6c4,2,7.9,2,9.9,2c11.9,0,23.8-7.9,27.7-19.8l83.2-213.9h97l83.2,213.9
		c4,11.9,15.8,19.8,27.7,19.8c4,0,7.9,0,9.9-2c15.8-5.9,23.8-23.8,17.8-37.6l-73.3-192.1h196.1V486.3H899.4z M414.2,799.2
		l-21.8-31.7l168.3-112.9l33.7,49.5l114.9-77.2l-19.8-29.7l105-4l-43.6,95.1l-19.8-27.7l-146.6,99l-33.7-49.5L414.2,799.2
		L414.2,799.2z"/>
</g>
</svg>
