<?xml version="1.0" encoding="utf-8"?>
<!-- Generator: Adobe Illustrator 17.1.0, SVG Export Plug-In . SVG Version: 6.00 Build 0)  -->
<!DOCTYPE svg PUBLIC "-//W3C//DTD SVG 1.1//EN" "http://www.w3.org/Graphics/SVG/1.1/DTD/svg11.dtd">
<svg version="1.1" id="Layer_1" xmlns="http://www.w3.org/2000/svg" xmlns:xlink="http://www.w3.org/1999/xlink" x="0px" y="0px"
	 viewBox="291.7 425.2 612 699.7" enable-background="new 291.7 425.2 612 699.7" xml:space="preserve">
<g>
	<path fill="#030202" d="M703.2,425.2V1125h200.5V425.2H703.2z M847.3,949.5h-87.7v-87.7h87.7V949.5z M847.3,774.1h-87.7v-87.7h87.7
		V774.1z M847.3,598.6h-87.7v-87.7h87.7V598.6z"/>
	<path fill="#030202" d="M584.1,548.5H454.6v48h-79.4v-77.3H346v77.3h-54.3V1125h350.9V596.5h-58.5V548.5z M433.7,949.5H346v-87.7
		h87.7V949.5z M433.7,774.1H346v-87.7h87.7V774.1z M584.1,949.5h-87.7v-87.7h87.7V949.5z M584.1,774.1h-87.7v-87.7h87.7V774.1z"/>
</g>
</svg>
