<?xml version="1.0" encoding="utf-8"?>
<!-- Generator: Adobe Illustrator 17.1.0, SVG Export Plug-In . SVG Version: 6.00 Build 0)  -->
<!DOCTYPE svg PUBLIC "-//W3C//DTD SVG 1.1//EN" "http://www.w3.org/Graphics/SVG/1.1/DTD/svg11.dtd">
<svg version="1.1" id="Layer_1" xmlns="http://www.w3.org/2000/svg" xmlns:xlink="http://www.w3.org/1999/xlink" x="0px" y="0px"
	 viewBox="278.3 453.8 612.2 617.9" enable-background="new 278.3 453.8 612.2 617.9" xml:space="preserve">
<path d="M867.8,781.2L580.9,486.4c-21.4-21.4-50.6-32.6-78.7-32.6c0,0-121.5,0-185.6,0c-28.1,0-38.2,21.4-38.2,40.5
	c0,64.1,0,183.4,0,183.4c0,28.1,11.2,57.4,32.6,78.8l286.9,294.8c43.9,43.9,88.9,10.1,132.7-33.7l112.5-112.5
	C885.8,863.3,911.7,825,867.8,781.2z M426.8,642.8c-22.5,0-40.5-18-40.5-40.5s18-40.5,40.5-40.5s40.5,18,40.5,40.5
	C466.2,624.8,448.2,642.8,426.8,642.8z"/>
</svg>
