<?xml version="1.0" encoding="utf-8"?>
<!-- Generator: Adobe Illustrator 17.1.0, SVG Export Plug-In . SVG Version: 6.00 Build 0)  -->
<!DOCTYPE svg PUBLIC "-//W3C//DTD SVG 1.1//EN" "http://www.w3.org/Graphics/SVG/1.1/DTD/svg11.dtd">
<svg version="1.1" id="Layer_1" xmlns="http://www.w3.org/2000/svg" xmlns:xlink="http://www.w3.org/1999/xlink" x="0px" y="0px"
	 viewBox="470.1 368.8 265 792" enable-background="new 470.1 368.8 265 792" xml:space="preserve">
<g>
	<path d="M602.5,920c-36.3,0-68.2-29-74-66.7c-8.7-21.8-53.7-280-58-349.6c-5.8-94.3,52.2-134.9,132-134.9s139.3,40.6,132,134.9
		c0,4.4-1.5,8.7-2.9,13.1L675,850.4C672.1,891,640.2,920,602.5,920z"/>
	<path d="M602.5,1160.8c-53.7,0-95.7-43.5-95.7-95.7c0-53.7,43.5-95.7,95.7-95.7c53.7,0,95.7,43.5,95.7,95.7
		C699.7,1117.3,656.1,1160.8,602.5,1160.8z"/>
</g>
</svg>
