<?xml version="1.0" encoding="utf-8"?>
<!-- Generator: Adobe Illustrator 17.1.0, SVG Export Plug-In . SVG Version: 6.00 Build 0)  -->
<!DOCTYPE svg PUBLIC "-//W3C//DTD SVG 1.1//EN" "http://www.w3.org/Graphics/SVG/1.1/DTD/svg11.dtd">
<svg version="1.1" id="Layer_1" xmlns="http://www.w3.org/2000/svg" xmlns:xlink="http://www.w3.org/1999/xlink" x="0px" y="0px"
	 viewBox="293 434.1 612 683.7" enable-background="new 293 434.1 612 683.7" xml:space="preserve">
<g>
	<path fill="#050001" d="M573.2,788.3H331.1v329.5h242.1V788.3z"/>
	<path fill="#050001" d="M624.8,788.3v329.5h242.1V788.3H624.8z"/>
	<path fill="#050001" d="M573.2,680.7H293v65h280.2V680.7z"/>
	<path fill="#050001" d="M624.8,680.7v65H905v-65H624.8z"/>
	<path fill="#050001" d="M499.2,470c40.4,0,71.7,31.4,71.7,71.7c0,15.7,0,47.1,0,69.5c-24.7,0-56,2.2-74,2.2
		c-40.4,0-71.7-31.4-71.7-71.7C427.5,501.4,458.9,470,499.2,470 M499.2,434.1c-58.3,0-107.6,47.1-107.6,107.6
		c0,58.3,47.1,107.6,107.6,107.6c29.1,0,107.6-4.5,107.6-4.5s-2.2-74-2.2-103.1C604.6,481.2,557.5,434.1,499.2,434.1L499.2,434.1z"
		/>
	<path fill="#050001" d="M694.3,470c40.4,0,71.7,31.4,71.7,71.7c0,40.4-31.4,71.7-71.7,71.7c-15.7,0-47.1,0-74-2.2
		c0-22.4,0-53.8,0-69.5C622.5,501.4,656.2,470,694.3,470 M694.3,434.1c-58.3,0-107.6,47.1-107.6,107.6c0,29.1-2.2,103.1-2.2,103.1
		s78.5,4.5,107.6,4.5c58.3,0,107.6-47.1,107.6-107.6C801.9,481.2,754.8,434.1,694.3,434.1L694.3,434.1z"/>
</g>
</svg>
