<?xml version="1.0" encoding="utf-8"?>
<!-- Generator: Adobe Illustrator 17.1.0, SVG Export Plug-In . SVG Version: 6.00 Build 0)  -->
<!DOCTYPE svg PUBLIC "-//W3C//DTD SVG 1.1//EN" "http://www.w3.org/Graphics/SVG/1.1/DTD/svg11.dtd">
<svg version="1.1" id="Layer_1" xmlns="http://www.w3.org/2000/svg" xmlns:xlink="http://www.w3.org/1999/xlink" x="0px" y="0px"
	 viewBox="290.8 469.8 612.6 612.1" enable-background="new 290.8 469.8 612.6 612.1" xml:space="preserve">
<g>
	
		<rect x="342.4" y="521.4" transform="matrix(0.7071 -0.7071 0.7071 0.7071 -320.0049 519.4429)" fill="#05060A" width="249.2" height="249.2"/>
	<path fill="#05060A" d="M849.6,852.6L646.2,703.1L526.6,824.7l149.5,201.3c35.9-25.9,107.6-2,169.4,55.8l57.8-57.8
		C845.6,962.3,823.7,888.5,849.6,852.6z M779.8,958.3c-14,14-33.9,14-47.8,0c-14-14-14-33.9,0-47.8c14-14,33.9-14,47.8,0
		C791.8,922.4,791.8,944.3,779.8,958.3z"/>
</g>
</svg>
