<?xml version="1.0" encoding="utf-8"?>
<!-- Generator: Adobe Illustrator 17.1.0, SVG Export Plug-In . SVG Version: 6.00 Build 0)  -->
<!DOCTYPE svg PUBLIC "-//W3C//DTD SVG 1.1//EN" "http://www.w3.org/Graphics/SVG/1.1/DTD/svg11.dtd">
<svg version="1.1" id="Layer_1" xmlns="http://www.w3.org/2000/svg" xmlns:xlink="http://www.w3.org/1999/xlink" x="0px" y="0px"
	 viewBox="294.3 399.7 612.7 755" enable-background="new 294.3 399.7 612.7 755" xml:space="preserve">
<g>
	<path fill="#090405" d="M898.8,512.6c0,0-110.4,5-170.6,12.5c-32.6,5-12.5-60.2-12.5-75.2c0-60.2-306,27.6-306,27.6v351.1
		c0,0,22.6,10,55.2-2.5c82.8-30.1,225.7-75.2,203.2-2.5c-20.1,62.7,223.2,12.5,223.2,12.5s-17.6-130.4,5-205.7
		C918.8,552.7,898.8,512.6,898.8,512.6z"/>
	<path fill="#090405" d="M369.5,437.3c0-20.1-17.6-37.6-37.6-37.6s-37.6,17.6-37.6,37.6v717.3h75.2V437.3z"/>
</g>
</svg>
