<?xml version="1.0" encoding="utf-8"?>
<!-- Generator: Adobe Illustrator 17.1.0, SVG Export Plug-In . SVG Version: 6.00 Build 0)  -->
<!DOCTYPE svg PUBLIC "-//W3C//DTD SVG 1.1//EN" "http://www.w3.org/Graphics/SVG/1.1/DTD/svg11.dtd">
<svg version="1.1" id="Layer_1" xmlns="http://www.w3.org/2000/svg" xmlns:xlink="http://www.w3.org/1999/xlink" x="0px" y="0px"
	 viewBox="338.4 364.2 503.3 792.2" enable-background="new 338.4 364.2 503.3 792.2" xml:space="preserve">
<g>
	<path fill="#070404" d="M841.6,948.7c0-223.7-218-450.8-252.2-563.8c-32-108.4,30.8,240.8,0,307c-41.1,89-67.3-165.5-81-121
		c-10.3,33.1-170,198.6-170,376.6c0,127.8,79.9,184.9,149.5,208.8c-17.1-21.7-32-53.6-32-98.1c0-42.2-2.3-87.9,79.9-154.1
		c0,0-47.9,168.9,43.4,165.5c91.3-4.6,20.5-276.2,50.2-230.5c41.1,62.8,119.8,206.6,91.3,304.7l0,0
		C782.3,1114.2,841.6,1058.3,841.6,948.7z"/>
</g>
</svg>
