<?xml version="1.0" encoding="utf-8"?>
<!-- Generator: Adobe Illustrator 17.1.0, SVG Export Plug-In . SVG Version: 6.00 Build 0)  -->
<!DOCTYPE svg PUBLIC "-//W3C//DTD SVG 1.1//EN" "http://www.w3.org/Graphics/SVG/1.1/DTD/svg11.dtd">
<svg version="1.1" id="Layer_1" xmlns="http://www.w3.org/2000/svg" xmlns:xlink="http://www.w3.org/1999/xlink" x="0px" y="0px"
	 viewBox="288.3 467.5 612 612" enable-background="new 288.3 467.5 612 612" xml:space="preserve">
<path fill="#0B0C15" d="M594.3,467.5c-168.5,0-306,137.5-306,306s137.5,306,306,306s306-137.5,306-306S764.5,467.5,594.3,467.5z
	 M553,924.8c-17.2,0-29.2-8.6-29.2-25.8c0-22.3,15.5-60.2,18.9-68.8l32.7-82.5c3.4-8.6-1.7-12-5.2-12c-17.2,0-39.5,41.3-48.1,41.3
	c-3.4,0-6.9-3.4-6.9-6.9c0-8.6,20.6-27.5,25.8-34.4c18.9-17.2,43-30.9,70.5-30.9c20.6,0,41.3,12,24.1,56.7l-32.7,91.1
	c-3.4,6.9-8.6,18.9-8.6,25.8c0,3.4,1.7,6.9,5.2,6.9c13.8,0,39.5-39.5,46.4-39.5c1.7,0,5.2,3.4,5.2,6.9
	C654.5,868.1,599.5,924.8,553,924.8z M633.8,689.3c-18.9,0-30.9-12-30.9-30.9c0-20.6,17.2-37.8,37.8-37.8c18.9,0,32.7,12,32.7,30.9
	C671.7,673.8,654.5,689.3,633.8,689.3z"/>
</svg>
