<?xml version="1.0" encoding="utf-8"?>
<!-- Generator: Adobe Illustrator 17.1.0, SVG Export Plug-In . SVG Version: 6.00 Build 0)  -->
<!DOCTYPE svg PUBLIC "-//W3C//DTD SVG 1.1//EN" "http://www.w3.org/Graphics/SVG/1.1/DTD/svg11.dtd">
<svg version="1.1" id="Layer_1" xmlns="http://www.w3.org/2000/svg" xmlns:xlink="http://www.w3.org/1999/xlink" x="0px" y="0px"
	 viewBox="0 167.1 612 458" enable-background="new 0 167.1 612 458" xml:space="preserve">
<g>
	<g>
		<path d="M335.6,229.6V285l-58.5-55.5h-16.9v111.8h16.9V287l58.9,54.2h16.9V229.6H335.6L335.6,229.6z M277.1,267v-17.2l58.5,54.2
			v18.5L277.1,267z"/>
		<path d="M306.5,181.6c27.8,0,53.9,10.9,73.4,30.4s30.4,45.6,30.4,73.4s-10.9,53.9-30.4,73.4s-45.6,30.4-73.4,30.4
			s-53.9-10.9-73.4-30.4s-30.4-45.6-30.4-73.4c0-27.8,10.9-53.9,30.4-73.4C252.6,192.2,278.7,181.6,306.5,181.6 M306.5,167.1
			c-65.5,0-118.4,52.9-118.4,118.4S241,403.8,306.5,403.8s118.4-52.9,118.4-118.4C424.9,220.2,371.6,167.1,306.5,167.1L306.5,167.1z
			"/>
	</g>
	<g>
		<path d="M52.9,456.3h16.9v76H52.9l-36-47.6v47.6H0v-76h15.9l37.4,48.9L52.9,456.3L52.9,456.3z"/>
		<path d="M147.8,532l-6.9-16.5h-31.7l-6.9,16.5H84l32.7-76h16.5l32.7,76H147.8z M125,478.8l-9.6,22.2h18.8L125,478.8z"/>
		<path d="M206.6,471V532h-16.9v-61.2h-21.5v-14.5H228v14.5h-21.4V471z"/>
		<path d="M246,456.3h16.9v76H246V456.3z"/>
		<path d="M350.8,521.5c-7.6,7.6-17.2,11.2-28.4,11.2c-11.2,0-20.5-3.6-28.4-11.2c-7.6-7.6-11.6-16.9-11.6-28.1s4-20.5,11.6-28.1
			c7.6-7.6,17.2-11.2,28.4-11.2c11.2,0,20.5,3.6,28.4,11.2c7.6,7.6,11.6,16.9,11.6,28.1C362.4,505,358.7,514.2,350.8,521.5z
			 M345.2,493.8c0-6.6-2.3-12.6-6.6-17.2c-4.3-4.6-9.6-7.3-15.9-7.3s-11.6,2.3-15.9,7.3c-4.3,4.6-6.6,10.6-6.6,17.2
			c0,6.6,2.3,12.6,6.6,17.2c4.3,4.6,9.6,7.3,15.9,7.3s11.6-2.3,15.9-7.3C343.2,506.2,345.2,500.3,345.2,493.8z"/>
		<path d="M435.4,456.3h16.9v76h-16.9l-36-47.6v47.6h-17.2v-76h15.9l37.4,48.9L435.4,456.3L435.4,456.3z"/>
		<path d="M530.3,532l-6.9-16.5h-31.7l-6.9,16.5h-18.2l32.7-76h16.5l32.7,76H530.3z M507.5,478.8l-9.6,22.2h18.8L507.5,478.8z"/>
		<path d="M562.7,532v-76h16.9v60.8H612V532H562.7z"/>
		<path d="M74.1,580H84v44.3h-9.9l-21.2-27.8v27.8H43v-44.6h9.3l21.8,28.8C74.1,608.5,74.1,580,74.1,580z"/>
		<path d="M130.3,580v8.9h-22.2v9.3H128v8.6h-19.8v9.3H131v8.9H98.2v-44.6h32.1L130.3,580L130.3,580z"/>
		<path d="M162,588.7v35.7h-9.9v-36h-12.6v-8.6h35v8.6H162V588.7L162,588.7z"/>
		<path d="M199,605.5l8-25.4h10.2l7.9,25.5L234,580h11l-15.9,44.3h-7.3l-9.6-31.1l-9.6,31.1h-7.3l-15.5-44.6h10.9L199,605.5z"/>
		<path d="M290,618.3c-4.6,4.3-9.9,6.6-16.5,6.6s-12.2-2.3-16.5-6.6c-4.6-4.3-6.6-9.9-6.6-16.5c0-6.6,2.3-11.9,6.6-16.5
			c4.6-4.3,9.9-6.6,16.5-6.6s12.2,2.3,16.5,6.6c4.6,4.3,6.6,9.9,6.6,16.5C296.6,608.5,294.3,613.8,290,618.3z M286.7,601.8
			c0-4-1.3-7.3-4-10.2c-2.6-2.6-5.6-4.3-9.3-4.3s-6.9,1.3-9.3,4.3c-2.6,2.6-4,6.3-4,10.2s1.3,7.3,4,10.2c2.6,2.6,5.6,4.3,9.3,4.3
			c3.6,0,6.9-1.3,9.3-4.3C285.3,609.2,286.7,605.8,286.7,601.8z"/>
		<path d="M344.2,594.5c0,7.3-3,11.9-8.6,13.9l11.2,15.9h-12.2l-9.9-14.2h-6.9v14.2h-9.9v-44.6h16.9c6.9,0,11.9,1.3,14.9,3.6
			C342.9,585.7,344.2,589.5,344.2,594.5z M332.3,599.8c1.3-1,2-3,2-5.3s-0.7-4-2-5s-3.6-1.3-6.6-1.3h-7.6v13.2h7.3
			C329,601.5,331.3,601.2,332.3,599.8z"/>
		<path d="M357.7,580h9.9v18.2l16.9-18.2h12.2l-17.9,19.8c1.7,2,4.3,6,8.6,11.9c4,6,7.3,10.2,9.3,12.9h-11.6l-12.9-17.5l-4.3,5v12.6
			H358V580H357.7z"/>
		<path d="M436.4,588.7c-1,0.7-1.3,2-1.3,3c0,1.3,0.7,2.3,1.7,3c1.3,0.7,4,1.7,7.9,2.6c4.3,1,7.6,2.6,9.9,4.6s3.6,5,3.6,9.3
			c0,4-1.7,7.3-4.6,9.6c-3,2.6-6.9,3.6-11.9,3.6c-6.9,0-13.6-2.6-19.2-7.9l6-7.3c5,4.3,9.3,6.3,13.2,6.3c2,0,3.3-0.3,4.3-1.3
			c1-0.7,1.7-2,1.7-3.3s-0.7-2.3-1.7-3.3c-1-0.7-3.3-1.7-6.6-2.3c-5.3-1.3-8.9-3-11.2-5c-2.3-2-3.6-5-3.6-9.3s1.7-7.6,4.6-9.9
			c3-2.3,6.9-3.3,11.2-3.3c3,0,6,0.7,8.9,1.7c3,1,5.6,2.3,7.9,4.3l-5,7.3c-4-3-7.9-4.3-11.9-4.3C438.7,587.7,437.4,588,436.4,588.7z
			"/>
		<path d="M509.8,596.2l-11.9,24.5h-6L480,596.2v28.1h-9.9v-44.6h13.6l11.6,24.5l11.6-24.5h13.2v44.6h-9.9L509.8,596.2L509.8,596.2z
			"/>
		<path d="M566,580v8.9h-22.2v9.3h19.8v8.6h-19.8v9.3h22.8v8.9H534v-44.6h32V580z"/>
	</g>
</g>
</svg>
