<?xml version="1.0" encoding="utf-8"?>
<!-- Generator: Adobe Illustrator 17.1.0, SVG Export Plug-In . SVG Version: 6.00 Build 0)  -->
<!DOCTYPE svg PUBLIC "-//W3C//DTD SVG 1.1//EN" "http://www.w3.org/Graphics/SVG/1.1/DTD/svg11.dtd">
<svg version="1.1" id="Layer_1" xmlns="http://www.w3.org/2000/svg" xmlns:xlink="http://www.w3.org/1999/xlink" x="0px" y="0px"
	 viewBox="271 449.4 612 612" enable-background="new 271 449.4 612 612" xml:space="preserve">
<g>
	<path d="M652.2,755.4L500.9,611.8h-43.6v288.9h43.6V760.5l152.1,140.2h43.6V611.8h-43.6L652.2,755.4L652.2,755.4z M652.2,851.1
		L500.9,707.5v-44.4l151.3,140.2V851.1z"/>
	<path d="M577,449.4c-169.2,0-306,136.8-306,306s136.8,306,306,306s306-136.8,306-306C883,587,745.4,449.4,577,449.4z M766.8,946
		c-50.4,50.4-118,78.6-189.8,78.6c-71.8,0-139.3-28.2-189.8-78.6c-50.4-50.4-78.6-118-78.6-189.8c0-71.8,28.2-139.3,78.6-189.8
		c50.4-50.4,118-78.6,189.8-78.6c71.8,0,139.3,28.2,189.8,78.6c50.4,50.4,78.6,118,78.6,189.8S817.2,895.6,766.8,946z"/>
</g>
</svg>
