<?xml version="1.0" encoding="utf-8"?>
<!-- Generator: Adobe Illustrator 17.1.0, SVG Export Plug-In . SVG Version: 6.00 Build 0)  -->
<!DOCTYPE svg PUBLIC "-//W3C//DTD SVG 1.1//EN" "http://www.w3.org/Graphics/SVG/1.1/DTD/svg11.dtd">
<svg version="1.1" id="Layer_1" xmlns="http://www.w3.org/2000/svg" xmlns:xlink="http://www.w3.org/1999/xlink" x="0px" y="0px"
	 viewBox="291.9 468.6 612 616.5" enable-background="new 291.9 468.6 612 616.5" xml:space="preserve">
<g>
	<path fill="#030202" d="M872.7,623H625l137.4-122.8c6.2-6.2,8.3-16.7,2.1-25c-6.2-6.2-16.7-8.3-25-2.1l-141.6,127l-141.6-127
		c-6.2-6.2-18.7-6.2-25,2.1c-6.2,6.2-6.2,18.7,2.1,25L570.8,623H323.1c-16.7,0-31.2,14.6-31.2,31.2v399.7
		c0,16.7,14.6,31.2,31.2,31.2h549.6c16.7,0,31.2-14.6,31.2-31.2V654.2C901.8,637.5,889.3,623,872.7,623z M741.5,1001.8
		c0,16.7-14.6,31.2-31.2,31.2H373.1c-16.7,0-31.2-14.6-31.2-31.2V704.1c0-16.7,14.6-31.2,31.2-31.2h337.2
		c16.7,0,31.2,14.6,31.2,31.2V1001.8z M847.7,993.5c0,4.2-4.2,8.3-8.3,8.3h-27.1c-4.2,0-8.3-4.2-8.3-8.3v-60.4
		c0-4.2,4.2-8.3,8.3-8.3h27.1c4.2,0,8.3,4.2,8.3,8.3V993.5z M801.9,833.2c0-12.5,10.4-22.9,22.9-22.9s22.9,10.4,22.9,22.9
		s-10.4,22.9-22.9,22.9S801.9,845.7,801.9,833.2z M824.8,785.3c-25,0-45.8-20.8-45.8-45.8s20.8-45.8,45.8-45.8
		c25,0,45.8,20.8,45.8,45.8S849.8,785.3,824.8,785.3z"/>
</g>
</svg>
