<?xml version="1.0" encoding="utf-8"?>
<!-- Generator: Adobe Illustrator 17.1.0, SVG Export Plug-In . SVG Version: 6.00 Build 0)  -->
<!DOCTYPE svg PUBLIC "-//W3C//DTD SVG 1.1//EN" "http://www.w3.org/Graphics/SVG/1.1/DTD/svg11.dtd">
<svg version="1.1" id="Layer_1" xmlns="http://www.w3.org/2000/svg" xmlns:xlink="http://www.w3.org/1999/xlink" x="0px" y="0px"
	 viewBox="283.8 504.8 612 535.3" enable-background="new 283.8 504.8 612 535.3" xml:space="preserve">
<g>
	<path fill="#0D0607" d="M843.8,925.2H335.8c-28.8,0-52,26-52,57.5c0,31.5,23.3,57.5,52,57.5h507.9c28.8,0,52-26,52-57.5
		C895.8,951.2,872.5,925.2,843.8,925.2z"/>
	<path fill="#0D0607" d="M843.8,715.7H335.8c-28.8,0-52,26-52,57.5c0,31.5,23.3,57.5,52,57.5h507.9c28.8,0,52-26,52-57.5
		C895.8,741.7,872.5,715.7,843.8,715.7z"/>
	<path fill="#0D0607" d="M335.8,619.8h507.9c28.8,0,52-26,52-57.5c0-31.5-23.3-57.5-52-57.5H335.8c-28.8,0-52,26-52,57.5
		C283.8,593.8,307.1,619.8,335.8,619.8z"/>
</g>
</svg>
