<?xml version="1.0" encoding="utf-8"?>
<!-- Generator: Adobe Illustrator 17.1.0, SVG Export Plug-In . SVG Version: 6.00 Build 0)  -->
<!DOCTYPE svg PUBLIC "-//W3C//DTD SVG 1.1//EN" "http://www.w3.org/Graphics/SVG/1.1/DTD/svg11.dtd">
<svg version="1.1" id="Layer_1" xmlns="http://www.w3.org/2000/svg" xmlns:xlink="http://www.w3.org/1999/xlink" x="0px" y="0px"
	 viewBox="371.1 377.5 462.4 792" enable-background="new 371.1 377.5 462.4 792" xml:space="preserve">
<g>
	<path fill="#05060A" d="M645.4,452.7v-75.2h-66.4v77.4c-112.8,15.5-185.8,95.1-185.8,172.6c0,108.4,79.6,154.9,185.8,192.5v150.4
		c-46.5-11.1-95.1-37.6-128.3-66.4l-79.6,86.3c50.9,44.2,119.5,79.6,205.7,86.3v92.9h66.4v-92.9c110.6-15.5,190.3-88.5,190.3-179.2
		c0-106.2-81.9-146-190.3-183.6V556.7c35.4,4.4,66.4,17.7,101.8,46.5l77.4-81.9C778.2,481.5,725.1,457.1,645.4,452.7z M583.5,556.7
		v130.5c-35.4-15.5-55.3-35.4-55.3-66.4C530.4,592.1,548.1,565.5,583.5,556.7z M641,842.1c37.6,17.7,55.3,35.4,55.3,66.4
		c0,31-19.9,53.1-55.3,59.7V842.1z"/>
</g>
</svg>
