<?xml version="1.0" encoding="utf-8"?>
<!-- Generator: Adobe Illustrator 17.1.0, SVG Export Plug-In . SVG Version: 6.00 Build 0)  -->
<!DOCTYPE svg PUBLIC "-//W3C//DTD SVG 1.1//EN" "http://www.w3.org/Graphics/SVG/1.1/DTD/svg11.dtd">
<svg version="1.1" id="Layer_1" xmlns="http://www.w3.org/2000/svg" xmlns:xlink="http://www.w3.org/1999/xlink" x="0px" y="0px"
	 viewBox="289.5 468.9 612 612" enable-background="new 289.5 468.9 612 612" xml:space="preserve">
<path fill="#020203" d="M595.5,468.9c-167.9,0-306,136.2-306,306c0,167.9,136.2,306,306,306c167.9,0,306-136.2,306-306
	C901.5,605.1,763.4,468.9,595.5,468.9z M664.5,666.7c-3.7,1.9,0-3.7,0-5.6c0,0,7.5,0,3.7-1.9c0-3.7-1.9-5.6-5.6-5.6
	c0-3.7-1.9-1.9-1.9-5.6c0-5.6,3.7,0,5.6-5.6c3.7,0,0,1.9,0,1.9s0,1.9,0,3.7c3.7,0,3.7-1.9,5.6-1.9c0,1.9-3.7,3.7,0,5.6
	c1.9,1.9,3.7,1.9,1.9,3.7c3.7,0,3.7,3.7,3.7,7.5c1.9,0,1.9,0,1.9-1.9c1.9,0,1.9,1.9,0,1.9c-1.9,3.7-7.5,3.7-11.2,3.7
	C668.3,664.8,668.3,664.8,664.5,666.7z M664.5,668.5c0,1.9-1.9,1.9-1.9,0l0,0H664.5z M694.4,700.3
	C696.3,704,696.3,702.1,694.4,700.3c3.7,0,3.7,7.5-1.9,5.6C694.4,704,692.5,700.3,694.4,700.3z M694.4,694.7c1.9,0,1.9,0,1.9,0
	c1.9,0,0,1.9,0,3.7C694.4,698.4,694.4,696.5,694.4,694.7z M698.1,715.2L698.1,715.2c3.7,0,9.3,11.2,7.5,14.9c1.9,0,3.7,0,5.6,0
	c0,1.9,5.6,3.7,7.5,3.7c3.7,0,13.1,0,13.1-3.7c1.9,0,3.7,1.9,3.7,3.7c1.9,0,18.7,0,16.8,3.7c1.9,0,3.7,3.7,5.6,3.7
	c0,1.9,1.9,9.3,5.6,9.3c0,1.9,1.9,7.5,3.7,9.3c1.9,3.7,5.6,11.2,9.3,13.1c-1.9,3.7,1.9,5.6,3.7,7.5c0,0,0,3.7,1.9,5.6
	c0,3.7,5.6,14.9,9.3,14.9c0,1.9-3.7,1.9,1.9,1.9h3.7c3.7,0,7.5,0,11.2-1.9c0,5.6-3.7,7.5-3.7,13.1c-3.7,0-1.9,3.7-1.9,3.7
	c-1.9,1.9-1.9,3.7-3.7,3.7c0,1.9-5.6,5.6-7.5,7.5s-7.5,5.6-7.5,9.3c0,0-9.3,9.3-7.5,9.3c0,1.9-1.9,18.7,0,18.7
	c0,1.9,3.7,14.9,1.9,14.9c0,3.7-3.7,7.5-3.7,11.2c-1.9,0-3.7,1.9-3.7,3.7c-1.9,0-3.7,5.6-5.6,5.6c0,5.6-1.9,9.3-1.9,16.8l-3.7,9.3
	c-3.7,1.9-11.2,9.3-11.2,13.1c0,0-5.6,7.5-5.6,9.3c-1.9,0-13.1,1.9-13.1,3.7c-1.9,0-9.3,1.9-11.2,0c0-1.9-1.9-5.6-1.9-9.3
	c-1.9,0-1.9-5.6-1.9-5.6c0-1.9-7.5-16.8-5.6-16.8c0-1.9-1.9-7.5-1.9-7.5c0-5.6-3.7-9.3-3.7-14.9c-1.9,0-3.7-11.2-1.9-11.2
	c0-5.6,1.9-9.3,3.7-16.8c1.9-7.5,0-11.2-1.9-16.8c0,0-3.7-3.7-3.7-5.6c-3.7-1.9-3.7-5.6-3.7-11.2c1.9-1.9,3.7-11.2,1.9-14.9
	c-3.7-1.9-5.6-1.9-9.3-1.9c-1.9-5.6-20.5-1.9-24.3-1.9c0,3.7-11.2,0-13.1-3.7c-3.7,0-9.3-5.6-9.3-9.3c-3.7-1.9-9.3-13.1-9.3-16.8
	c-3.7-1.9-1.9-7.5,0-7.5c0-1.9-1.9-5.6-1.9-9.3c0-1.9,1.9-3.7,1.9-5.6c0-5.6,0-7.5,3.7-14.9c1.9-1.9,1.9-3.7,3.7-5.6
	c1.9-3.7,1.9,0,3.7-3.7c1.9-1.9,3.7-3.7,5.6-5.6c1.9-1.9,1.9-1.9,0-3.7c0,0,3.7-5.6,3.7-7.5c3.7-3.7,0-1.9,3.7-1.9
	c1.9-1.9,3.7-3.7,5.6-3.7c0-1.9,1.9-1.9,3.7-1.9c0,1.9,7.5,0,7.5,0c1.9-1.9,7.5-5.6,9.3-5.6C681.3,711.5,696.3,715.2,698.1,715.2z
	 M703.7,711.5c0-1.9,1.9,0,3.7,0c3.7,1.9,1.9,0,3.7-1.9C711.2,717.1,707.5,713.3,703.7,711.5z M798.9,879.4c0-1.9,0-1.9,1.9-1.9
	C800.7,879.4,800.7,879.4,798.9,879.4z M651.5,664.8c-1.9-1.9,0-3.7,0-5.6c-3.7-1.9,3.7-1.9,3.7-3.7c-1.9,0-1.9-1.9-1.9-1.9
	c0-1.9,1.9,1.9,3.7,1.9s5.6-1.9,3.7,1.9C658.9,661.1,657.1,664.8,651.5,664.8z M614.2,620c0,0,3.7-1.9,5.6-1.9l0,0v3.7
	c0,1.9,5.6-1.9,7.5-1.9c5.6,0,5.6-3.7,5.6,1.9c1.9,1.9,1.9,0,3.7-1.9c0,1.9,1.9,1.9,0,3.7s-3.7,1.9-7.5,1.9c0,0-7.5,1.9-7.5,0
	c-1.9,0-3.7-1.9-7.5-1.9C614.2,621.9,619.8,620,614.2,620z M787.7,890.6c1.9,1.9,3.7,3.7,3.7,0c-3.7,0-1.9-1.9-1.9-3.7
	c1.9,1.9,7.5,3.7,7.5-1.9c-3.7,0,0-7.5,0-3.7c3.7,0,1.9-5.6,3.7-7.5c0,1.9,1.9,7.5,1.9,9.3c3.7,3.7-1.9,3.7-1.9,5.6
	c-1.9,0-1.9,3.7-1.9,3.7H797c0,3.7-1.9,7.5-1.9,11.2c-1.9,0-1.9,5.6-1.9,11.2c-1.9,1.9-1.9,1.9-3.7,3.7
	C782.1,922.3,785.8,896.2,787.7,890.6z M839.9,754.4c-3.7,0-7.5,0-9.3-1.9c-7.5,0-14.9-7.5-22.4-5.6l0,0c0-1.9-5.6-13.1-9.3-9.3
	c0,1.9,1.9,5.6,3.7,7.5c0,1.9,0,3.7,1.9,3.7c1.9,1.9,0,3.7,0,3.7c3.7,0,1.9,0,3.7-5.6l0,0c0,1.9,0,3.7,0,3.7c3.7,3.7,0,0,0,3.7
	c3.7,0,7.5-1.9,9.3-7.5c1.9,1.9,0,3.7,1.9,3.7c1.9,1.9,1.9,1.9,1.9,3.7s3.7,3.7,1.9-1.9c3.7,1.9,3.7,7.5,0,9.3
	c0,1.9-1.9,1.9-1.9,5.6c0,1.9-1.9,5.6-3.7,5.6c0,1.9-11.2,5.6-11.2,9.3c-1.9,0-9.3,1.9-11.2,5.6c-1.9,0-7.5,1.9-7.5,3.7
	c-7.5,0-5.6-9.3-9.3-9.3c0-1.9,0-1.9-1.9-3.7c1.9,0-7.5-16.8-7.5-20.5c-1.9,0-3.7-5.6-3.7-7.5c-1.9-1.9-3.7-5.6-5.6-7.5
	c-1.9-1.9-7.5-7.5-7.5-9.3c3.7,0,7.5,0,7.5-3.7c-1.9,0-1.9-1.9,0-1.9c0-1.9,1.9-3.7,1.9-5.6c0-1.9,1.9-5.6,1.9-9.3
	c-1.9,0-3.7,0-5.6,1.9c0,1.9-5.6,0-5.6,0c-1.9-1.9-9.3,1.9-11.2-1.9c-3.7-3.7-1.9-5.6-3.7-9.3c0-1.9-3.7-1.9-5.6-1.9
	c-5.6-1.9-1.9,5.6-1.9,7.5c3.7,0-1.9,3.7-1.9,5.6c-5.6-1.9-3.7-7.5-7.5-9.3c-1.9-1.9,0-3.7-1.9-3.7c0-1.9,1.9-5.6-1.9-7.5
	c0-1.9-3.7-1.9-5.6-3.7c-3.7,0-9.3-11.2-11.2-7.5c-1.9,1.9,1.9,3.7,1.9,5.6c3.7,0,3.7,7.5,9.3,5.6c0,1.9,0,1.9,0,3.7
	c3.7,0,3.7,3.7,5.6,3.7c-1.9,1.9-5.6-3.7-3.7,1.9c0,1.9,0,3.7-1.9,7.5c0-1.9,0-9.3-1.9-9.3c-1.9-3.7-7.5-1.9-9.3-5.6
	c-1.9,0-1.9-5.6-5.6-5.6c0,0-1.9,1.9-3.7,1.9c-1.9,3.7-11.2,0-11.2,0s-5.6,13.1-5.6,14.9c0,3.7-3.7,3.7-3.7,7.5
	c0,1.9-11.2,0-11.2,1.9c-3.7-1.9-9.3-5.6-9.3-9.3c0,0,0-13.1,1.9-14.9c0,0,1.9,0,1.9,1.9c1.9-1.9,9.3,0,9.3-1.9
	c1.9,0,3.7,1.9,1.9,3.7c1.9,0,7.5,1.9,7.5-1.9c-1.9,0-1.9,0-1.9-1.9c5.6-5.6-3.7-9.3-3.7-11.2c-1.9,0-5.6-3.7-1.9-3.7
	c1.9,1.9,9.3,3.7,7.5-1.9l0,0c0,0,3.7,3.7,3.7,0c1.9,0,5.6-1.9,1.9-1.9c0-1.9,0-3.7,0-3.7c5.6,1.9,1.9-1.9,5.6-3.7
	c0,3.7,1.9-1.9,3.7-1.9c1.9-3.7,5.6,0,7.5-3.7c-1.9,0-1.9-7.5-1.9-9.3c3.7,0,5.6-3.7,7.5,0c0,1.9,0,3.7,0,5.6
	c3.7,1.9,3.7-1.9,3.7-3.7c-1.9,0-3.7-5.6-3.7-7.5c-1.9,0-3.7,0-3.7,1.9c-3.7,0-7.5-1.9-11.2-1.9l-3.7-5.6c-1.9-3.7,1.9-3.7,3.7-3.7
	c0-3.7,16.8-3.7,16.8-9.3c-5.6,0,5.6-9.3,5.6-9.3c3.7-3.7,5.6-5.6,9.3-5.6c1.9,0,24.3-5.6,24.3-3.7c1.9,0,14.9,0,14.9,1.9
	c1.9,0,7.5,1.9,9.3,1.9c1.9-1.9,13.1,3.7,13.1,7.5c-5.6,0-13.1,1.9-18.7,1.9c0,1.9,0,0,0,1.9c1.9,0,5.6,5.6,5.6,7.5
	c3.7,0,3.7-1.9,7.5-1.9c0,1.9,3.7,3.7,3.7,0c-1.9,0-1.9-3.7,0-3.7c1.9-3.7,5.6,0,5.6-3.7C815.7,653.6,836.2,702.1,839.9,754.4z
	 M427.6,593.9c1.9,0,3.7-1.9,3.7-1.9c0,1.9,0,1.9,0,5.6c0,0,3.7,3.7,1.9,5.6c1.9,0,5.6-1.9,5.6,1.9c-1.9,0-1.9,0-3.7,0
	c0,5.6-1.9,1.9-5.6,1.9c0,0-9.3-3.7-5.6,1.9c1.9,0,0,1.9,3.7,1.9c3.7,1.9,5.6,1.9,9.3,1.9c1.9,0,3.7,0,5.6,0c0,0,5.6-3.7,1.9-3.7
	c0-1.9,0-1.9-3.7-3.7c0-1.9,5.6,0,7.5,0c1.9-3.7,0-1.9,1.9-5.6c1.9-3.7,3.7,0,5.6-3.7c1.9,0,3.7,1.9,3.7,3.7
	c1.9,1.9,9.3,11.2,9.3,3.7c1.9,0,3.7,5.6,3.7,9.3c5.6,0,5.6-3.7,5.6-7.5c1.9,0,0-1.9,0-1.9c1.9,0,3.7,1.9,3.7,0c0,0,0,0,0,1.9
	c1.9,0,3.7,0,5.6,0c1.9,0,0,5.6,0,7.5s-5.6,1.9-5.6,3.7c-5.6,3.7,5.6,5.6,7.5,9.3c-1.9,0-5.6,0-5.6,0c-1.9,0-9.3,1.9-11.2,0
	c3.7,0,3.7-3.7,5.6-7.5c-3.7-1.9-5.6,0-7.5,3.7c-1.9,5.6-3.7,0-5.6,3.7c0,0-5.6,3.7-5.6,1.9c-5.6,0-5.6,5.6-5.6,13.1
	c1.9,1.9,7.5,5.6,7.5,9.3c5.6,1.9,7.5,1.9,13.1,1.9c0,0,1.9,1.9,3.7,1.9c0,3.7,3.7,3.7,5.6,3.7c0-3.7,5.6,3.7,5.6,5.6
	c0,0,1.9,3.7,1.9,5.6c0,0-1.9,0,0,0s7.5,0,7.5-1.9c-1.9,0-1.9-1.9-1.9-3.7c-1.9-1.9-1.9-5.6,0-5.6c0,1.9,7.5-1.9,3.7-3.7
	c1.9-1.9,1.9-5.6,0-9.3c-1.9-1.9-1.9,0-3.7-1.9c3.7,0,0-7.5,0-9.3c1.9,0,3.7,0,3.7,0c3.7,0,7.5,3.7,9.3,0c5.6,1.9,1.9,3.7,5.6,3.7
	c0,1.9,5.6,7.5,7.5,7.5c0,0,0,1.9,1.9,1.9c0,1.9,0,0,0,1.9h5.6c1.9,0,3.7-3.7,3.7-5.6c1.9-1.9,3.7,9.3,5.6,9.3
	c1.9,1.9,5.6,5.6,5.6,7.5c1.9,1.9,1.9,0,1.9,3.7c1.9,0,3.7-5.6,3.7,0c1.9,0,3.7,1.9,5.6,3.7c-3.7,0,0,3.7-1.9,3.7c0,1.9-5.6,0-7.5,0
	c-1.9,9.3-13.1,1.9-20.5,3.7c-3.7,1.9-11.2,9.3-11.2,13.1c3.7,0,5.6-3.7,11.2-5.6c3.7,0,3.7-1.9,7.5-3.7c0,0,0,0,0,1.9
	c-5.6,0-1.9,3.7,0,5.6c1.9,1.9,3.7,3.7,5.6,3.7c0,1.9-3.7,0-3.7,1.9c-1.9,0-3.7,1.9-3.7,1.9c-5.6,0-3.7,0-3.7-1.9h1.9
	c0-1.9-1.9-1.9,0-3.7c-3.7,0-5.6,1.9-7.5,1.9c0,1.9-3.7,3.7-3.7,3.7c0,1.9-1.9,7.5-5.6,9.3l-5.6,3.7c-1.9,1.9-1.9,1.9-3.7,5.6
	l-1.9,5.6c-1.9,1.9-3.7,9.3-7.5,9.3c-1.9,5.6-7.5,3.7-7.5,11.2c1.9,1.9,1.9,9.3,1.9,11.2c0,3.7,1.9,5.6-1.9,5.6c0,0-3.7-3.7-1.9-3.7
	c0-1.9-1.9-7.5-3.7-9.3s-3.7,0-7.5,0c-1.9-1.9-7.5-1.9-9.3-1.9c0,1.9,1.9,1.9,1.9,3.7c-1.9,0-3.7,1.9-5.6,1.9
	c-3.7,0-3.7-3.7-7.5-3.7c-5.6,0-11.2,5.6-11.2,11.2v11.2c0,3.7,3.7,5.6,3.7,9.3c1.9,0,5.6,5.6,9.3,5.6c0,1.9-1.9,1.9,3.7,1.9
	c0,0,1.9-1.9,3.7-3.7c-3.7,0,0-5.6,1.9-5.6c0,3.7,3.7-1.9,3.7-1.9l3.7-1.9c0-3.7,3.7,0,0,1.9c-1.9,0-1.9,3.7-3.7,3.7
	c0,1.9-1.9,5.6-1.9,7.5c0,3.7,1.9,3.7,1.9,5.6c3.7,0,5.6,0,9.3,0v-1.9c3.7,0,0,9.3,3.7,9.3c0,3.7,1.9,5.6,1.9,7.5
	c1.9,1.9,3.7,3.7,3.7,5.6c1.9,0,9.3,1.9,9.3-1.9c3.7,0,3.7,1.9,3.7,5.6c7.5,0,3.7-7.5,5.6-7.5c0-1.9,0-1.9,1.9,0
	c1.9,0,3.7-1.9,3.7-1.9l1.9-1.9c1.9,0,1.9,0,1.9,1.9c1.9,0,3.7-1.9,5.6-1.9c3.7,0,1.9,7.5,7.5,7.5c1.9,0,7.5,0,9.3,0l1.9,1.9
	c1.9,0,1.9,1.9,1.9,1.9l0,0c0,0,1.9,0,1.9,1.9s3.7,1.9,3.7,3.7c1.9,1.9,0,1.9,3.7,3.7c1.9,0,3.7,1.9,7.5,1.9c0-3.7,3.7,0,3.7,0
	c0,1.9,1.9,0,1.9,1.9c3.7,3.7,1.9,1.9,3.7,5.6c1.9,1.9,1.9,5.6,3.7,7.5c-1.9,0,0,5.6,0,5.6c-1.9,0,3.7,3.7,3.7,0
	c1.9,0,3.7,3.7,5.6,3.7c-1.9,1.9,3.7,3.7,3.7,0c3.7,0,1.9,5.6,1.9,7.5c3.7,0,3.7-1.9,7.5-1.9c1.9,0,3.7,1.9,3.7,0
	c3.7,1.9,5.6,3.7,9.3,5.6c5.6,3.7,5.6,16.8,0,20.5l-5.6,7.5v9.3c0,1.9-1.9,11.2-1.9,11.2c0,3.7-3.7,5.6-3.7,9.3
	c-1.9,1.9-9.3,5.6-9.3,7.5c-1.9,0-3.7,1.9-5.6,1.9l-3.7,3.7c0,3.7,0,9.3-1.9,11.2s-1.9,1.9-1.9,3.7c-1.9,0,0,1.9-3.7,1.9
	c-1.9,0-5.6,3.7-5.6,5.6c0,3.7-1.9,5.6-3.7,7.5c0,1.9-5.6,1.9-5.6,3.7v5.6c-1.9,0-5.6,1.9-5.6,1.9c-5.6,0-3.7,0-7.5,3.7
	c0,0,0,3.7-1.9,3.7c0,3.7-3.7,0-5.6,1.9l1.9,3.7c0,3.7-1.9,3.7-3.7,5.6c-1.9,0-1.9,3.7-3.7,3.7c0,1.9-1.9,3.7-1.9,7.5v1.9
	c1.9,0,1.9-1.9,1.9-1.9c0-1.9,3.7,1.9,1.9,1.9c-1.9,1.9-3.7,1.9-3.7,5.6c-3.7,0-5.6,7.5-3.7,7.5c0,1.9,0,1.9,1.9,3.7
	c-7.5-1.9-13.1-3.7-18.7-5.6c0-7.5,0-26.1,1.9-26.1c0-1.9,1.9-5.6,1.9-5.6c0-3.7,0-7.5,0-11.2c-1.9-1.9,1.9-5.6,1.9-9.3
	c3.7-1.9,1.9-26.1,5.6-26.1c0-11.2,1.9-18.7,0-29.9l-5.6-5.6c-5.6,0-9.3-9.3-9.3-13.1c0-1.9-1.9-3.7-1.9-7.5
	c1.9,0-9.3-14.9-9.3-14.9c-5.6-3.7,0-7.5,0-11.2c-3.7-1.9,0-13.1,1.9-13.1c0-1.9,1.9-1.9,1.9-3.7c1.9,3.7,5.6-1.9,1.9-1.9
	c0-1.9,0-7.5,0-9.3c0-3.7-3.7-11.2-5.6-3.7c-3.7-1.9-11.2-1.9-11.2-5.6c0-1.9-3.7-7.5-5.6-7.5c1.9-3.7-7.5-9.3-11.2-9.3
	c0,0-1.9,0-1.9-1.9c-3.7,0-3.7-5.6-9.3-5.6c-3.7,0-9.3-3.7-13.1-3.7c-1.9-3.7-7.5-1.9-9.3-5.6c-3.7,0-5.6-7.5-5.6-9.3
	c0-3.7-1.9-13.1-7.5-13.1c0-1.9-5.6-7.5-7.5-7.5c0,0-1.9-5.6-3.7-5.6c0-1.9-5.6-9.3-7.5-5.6c0,1.9,3.7,5.6,3.7,7.5
	c1.9,0,5.6,7.5,5.6,9.3c9.3,14.9-7.5,5.6-7.5-1.9c-1.9-1.9-5.6-9.3-5.6-11.2c-1.9-1.9-5.6-9.3-3.7-9.3c0-5.6-1.9-7.5-7.5-7.5
	l-5.6-7.5c0-1.9-3.7-7.5-5.6-9.3c0-3.7-1.9-9.3-1.9-13.1c0-7.5,0-16.8-7.5-22.4C386.5,640.6,405.2,616.3,427.6,593.9z M548.9,681.6
	c0,1.9-1.9,1.9-3.7,3.7C547,683.5,547,683.5,548.9,681.6z M537.7,774.9c-1.9,0-1.9,1.9-1.9-1.9C535.8,774.9,537.7,774.9,537.7,774.9
	z M519,774.9c0,1.9-5.6,1.9-7.5,0C515.3,774.9,517.1,774.9,519,774.9c-1.9-1.9-1.9-1.9-3.7-3.7c1.9,0,3.7,1.9,7.5,1.9
	c0-1.9,0,0,0-1.9c1.9,0,3.7,3.7,3.7,3.7C524.6,774.9,524.6,774.9,519,774.9z M522.7,793.6C522.7,795.4,522.7,795.4,522.7,793.6
	C520.9,795.4,520.9,793.6,522.7,793.6L522.7,793.6z M502.2,765.6c-1.9,0-5.6-1.9-7.5-3.7c1.9,0,3.7,0,5.6-1.9c5.6,0,5.6,3.7,9.3,3.7
	c0,1.9,5.6,3.7,0,5.6C507.8,769.3,504.1,767.4,502.2,765.6z M507.8,776.8h-1.9C505.9,774.9,507.8,773,507.8,776.8z M505.9,776.8
	c-1.9,0-3.7,0-3.7-1.9C504.1,774.9,505.9,774.9,505.9,776.8z M491,761.8c0,1.9-5.6,3.7-3.7,0c0,0,0,0,1.9,0
	C489.1,763.7,489.1,761.8,491,761.8z"/>
</svg>
