<?xml version="1.0" encoding="utf-8"?>
<!-- Generator: Adobe Illustrator 17.1.0, SVG Export Plug-In . SVG Version: 6.00 Build 0)  -->
<!DOCTYPE svg PUBLIC "-//W3C//DTD SVG 1.1//EN" "http://www.w3.org/Graphics/SVG/1.1/DTD/svg11.dtd">
<svg version="1.1" id="Layer_1" xmlns="http://www.w3.org/2000/svg" xmlns:xlink="http://www.w3.org/1999/xlink" x="0px" y="0px"
	 viewBox="294.2 372.4 612.2 786" enable-background="new 294.2 372.4 612.2 786" xml:space="preserve">
<g>
	<path fill="#030202" d="M503,552.2c0-43.5,46.4-75.4,101.5-75.4s101.5,34.8,101.5,75.4V674h101.5V552.2
		c0-98.6-92.8-179.8-205.9-179.8s-205.9,81.2-205.9,179.8V674h101.5V552.2H503z"/>
	<path fill="#030202" d="M830.8,674H369.6c-43.5,0-75.4,34.8-75.4,75.4V1083c0,43.5,34.8,75.4,75.4,75.4h461.2
		c43.5,0,75.4-34.8,75.4-75.4V749.4C909.1,708.8,874.3,674,830.8,674z M601.7,975.7c-46.4,0-84.1-37.7-84.1-84.1
		s37.7-84.1,84.1-84.1c46.4,0,84.1,37.7,84.1,84.1C685.8,938,648.1,975.7,601.7,975.7z"/>
</g>
</svg>
