<?xml version="1.0" encoding="utf-8"?>
<!-- Generator: Adobe Illustrator 17.1.0, SVG Export Plug-In . SVG Version: 6.00 Build 0)  -->
<!DOCTYPE svg PUBLIC "-//W3C//DTD SVG 1.1//EN" "http://www.w3.org/Graphics/SVG/1.1/DTD/svg11.dtd">
<svg version="1.1" id="Layer_1" xmlns="http://www.w3.org/2000/svg" xmlns:xlink="http://www.w3.org/1999/xlink" x="0px" y="0px"
	 viewBox="291.9 457.8 611.6 614.3" enable-background="new 291.9 457.8 611.6 614.3" xml:space="preserve">
<g>
	<path fill="#030202" d="M897.5,952.5l-135.2-80.2c-6.9-4.6-18.3-2.3-22.9,4.6l-39,39c-4.6,4.6-16,9.2-25.2,9.2c0,0-50.4,0-144.4-94
		c-94-94-94-144.4-94-144.4c0-6.9,4.6-18.3,9.2-25.2l34.4-34.4c4.6-4.6,6.9-16,4.6-22.9l-73.3-139.8c-2.3-6.9-11.5-9.2-16-2.3
		l-91.7,91.7c-4.6,4.6-11.5,16-11.5,25.2c0,0-18.3,135.2,169.6,323.2c188,188,323.2,169.6,323.2,169.6c6.9,0,18.3-6.9,25.2-11.5
		l91.7-91.7C904.4,963.9,904.4,957,897.5,952.5z"/>
</g>
</svg>
