<?xml version="1.0" encoding="utf-8"?>
<!-- Generator: Adobe Illustrator 17.1.0, SVG Export Plug-In . SVG Version: 6.00 Build 0)  -->
<!DOCTYPE svg PUBLIC "-//W3C//DTD SVG 1.1//EN" "http://www.w3.org/Graphics/SVG/1.1/DTD/svg11.dtd">
<svg version="1.1" id="Layer_1" xmlns="http://www.w3.org/2000/svg" xmlns:xlink="http://www.w3.org/1999/xlink" x="0px" y="0px"
	 viewBox="283.5 462.8 612 612" enable-background="new 283.5 462.8 612 612" xml:space="preserve">
<path fill="#020203" d="M589.5,462.8c-169,0-306,137-306,306s137,306,306,306s306-137,306-306C895.5,599.8,758.5,462.8,589.5,462.8z
	 M719.9,808.7h-82.5v82.5c0,23.9-21.3,42.6-46.6,42.6c-25.3,0-46.6-18.6-46.6-42.6v-82.5h-81.2c-23.9,0-42.6-21.3-42.6-46.6
	s18.6-46.6,42.6-46.6h82.5v-82.5c0-23.9,21.3-42.6,46.6-42.6c25.3,0,46.6,18.6,46.6,42.6v82.5h82.5c23.9,0,42.6,21.3,42.6,46.6
	C762.5,788.8,743.8,808.7,719.9,808.7z"/>
</svg>
