<?xml version="1.0" encoding="utf-8"?>
<!-- Generator: Adobe Illustrator 17.1.0, SVG Export Plug-In . SVG Version: 6.00 Build 0)  -->
<!DOCTYPE svg PUBLIC "-//W3C//DTD SVG 1.1//EN" "http://www.w3.org/Graphics/SVG/1.1/DTD/svg11.dtd">
<svg version="1.1" id="Layer_1" xmlns="http://www.w3.org/2000/svg" xmlns:xlink="http://www.w3.org/1999/xlink" x="0px" y="0px"
	 viewBox="286 465.2 612 612" enable-background="new 286 465.2 612 612" xml:space="preserve">
<path fill="#090405" d="M837.8,703H660.2V525.4c0-33.8-29.4-60.2-66-60.2c-36.7,0-66,26.4-66,60.2v182h-182
	c-33.8,0-60.2,29.4-60.2,66c0,36.7,26.4,66,60.2,66h177.6V1017c0,33.8,29.4,60.2,66,60.2c36.7,0,66-26.4,66-60.2V835h182
	c33.8,0,60.2-29.4,60.2-66C898,732.3,871.6,703,837.8,703z"/>
</svg>
