<?xml version="1.0" encoding="utf-8"?>
<!-- Generator: Adobe Illustrator 17.1.0, SVG Export Plug-In . SVG Version: 6.00 Build 0)  -->
<!DOCTYPE svg PUBLIC "-//W3C//DTD SVG 1.1//EN" "http://www.w3.org/Graphics/SVG/1.1/DTD/svg11.dtd">
<svg version="1.1" id="Layer_1" xmlns="http://www.w3.org/2000/svg" xmlns:xlink="http://www.w3.org/1999/xlink" x="0px" y="0px"
	 viewBox="294.1 384 612.6 783.6" enable-background="new 294.1 384 612.6 783.6" xml:space="preserve">
<g>
	<path fill="#060304" d="M653.4,1048.1c-19.8,0-37.2-7.4-49.6-19.8L299.1,723.5l7.4,89.2c0,9.9,7.4,24.8,14.9,32.2L638.5,1162
		c7.4,7.4,19.8,7.4,27.3,0l230.4-230.4c7.4-7.4,7.4-19.8,0-27.3l-34.7-34.7l-161.1,161.1C690.5,1040.6,673.2,1048.1,653.4,1048.1z"
		/>
	<path fill="#060304" d="M581.5,413.8c-7.4-7.4-22.3-14.9-32.2-14.9l-171-14.9h-2.5c-9.9,0-24.8,5-29.7,12.4l-39.6,39.6
		c-7.4,7.4-12.4,22.3-12.4,32.2L309,641.7c0,9.9,7.4,24.8,14.9,32.2L641,991.1c5,5,9.9,5,14.9,5s9.9-2.5,14.9-5l230.4-230.4
		c7.4-7.4,7.4-19.8,0-27.3L581.5,413.8z M363.5,455.9c7.4-7.4,19.8-12.4,29.7-12.4c9.9,0,22.3,5,29.7,12.4
		c17.3,17.3,17.3,44.6,0,59.5c-7.4,7.4-19.8,12.4-29.7,12.4c-9.9,0-22.3-5-29.7-12.4C348.6,500.5,348.6,473.2,363.5,455.9z"/>
</g>
</svg>
