<?xml version="1.0" encoding="utf-8"?>
<!-- Generator: Adobe Illustrator 17.1.0, SVG Export Plug-In . SVG Version: 6.00 Build 0)  -->
<!DOCTYPE svg PUBLIC "-//W3C//DTD SVG 1.1//EN" "http://www.w3.org/Graphics/SVG/1.1/DTD/svg11.dtd">
<svg version="1.1" id="Layer_1" xmlns="http://www.w3.org/2000/svg" xmlns:xlink="http://www.w3.org/1999/xlink" x="0px" y="0px"
	 viewBox="295.4 482.3 612 595.8" enable-background="new 295.4 482.3 612 595.8" xml:space="preserve">
<g>
	<path d="M602.7,482.3L602.7,482.3c-172.5,0-307.3,129.4-307.3,296.6s134.8,299.3,307.3,299.3c169.8,0,304.7-132.1,304.7-299.3
		C904.7,614.4,769.9,482.3,602.7,482.3z M662.1,911c-8.1-8.1-13.5-29.7-18.9-62c-5.4-27-18.9-37.7-51.2-37.7h-27V911h-59.3V660.2
		c24.3-2.7,53.9-8.1,97.1-8.1c48.5,0,70.1,8.1,86.3,18.9c16.2,10.8,27,29.7,27,53.9c0,29.7-21.6,51.2-51.2,59.3v2.7
		c24.3,8.1,37.7,27,43.1,62c8.1,37.7,13.5,51.2,18.9,62L662.1,911L662.1,911z"/>
	<path d="M597.4,695.3c-16.2,0-27,2.7-32.4,2.7v72.8h27c32.4,0,59.3-10.8,59.3-37.7C648.6,708.8,632.4,695.3,597.4,695.3z"/>
</g>
</svg>
