<?xml version="1.0" encoding="utf-8"?>
<!-- Generator: Adobe Illustrator 17.1.0, SVG Export Plug-In . SVG Version: 6.00 Build 0)  -->
<!DOCTYPE svg PUBLIC "-//W3C//DTD SVG 1.1//EN" "http://www.w3.org/Graphics/SVG/1.1/DTD/svg11.dtd">
<svg version="1.1" id="Layer_1" xmlns="http://www.w3.org/2000/svg" xmlns:xlink="http://www.w3.org/1999/xlink" x="0px" y="0px"
	 viewBox="219 442.2 612 547.4" enable-background="new 219 442.2 612 547.4" xml:space="preserve">
<path fill="#05060A" d="M816,878.6L589.5,487.9c-35.4-60.9-93.1-60.9-128.1,0L234.2,878.9c-35.4,60.9-6.7,110.6,63.7,110.6h454.8
	C822.3,989.2,851.1,939.5,816,878.6z M527.2,920.6c-21.7,0-39.2-17.2-39.2-39.2c0-21.7,17.2-39.2,39.2-39.2
	c21.7,0,39.2,17.2,39.2,39.2C566.4,903.1,549.3,920.6,527.2,920.6z M555.2,817.3h-55.3l-18.6-225.5h92.8L555.2,817.3z"/>
</svg>
