<?xml version="1.0" encoding="utf-8"?>
<!-- Generator: Adobe Illustrator 17.1.0, SVG Export Plug-In . SVG Version: 6.00 Build 0)  -->
<!DOCTYPE svg PUBLIC "-//W3C//DTD SVG 1.1//EN" "http://www.w3.org/Graphics/SVG/1.1/DTD/svg11.dtd">
<svg version="1.1" id="Layer_1" xmlns="http://www.w3.org/2000/svg" xmlns:xlink="http://www.w3.org/1999/xlink" x="0px" y="0px"
	 viewBox="291.6 444 612.8 663.7" enable-background="new 291.6 444 612.8 663.7" xml:space="preserve">
<g>
	<rect x="679.5" y="763" fill="#020203" width="77.6" height="77.6"/>
	<path fill="#020203" d="M429.5,569c10.8,0,19.4-8.6,19.4-19.4v-30.2v-25.9v-30.2c0-10.8-8.6-19.4-19.4-19.4
		c-10.8,0-19.4,8.6-19.4,19.4v30.2v25.9v30.2C410.1,560.4,418.7,569,429.5,569z"/>
	<path fill="#020203" d="M774.3,569c10.8,0,19.4-8.6,19.4-19.4v-30.2v-25.9v-30.2c0-10.8-8.6-19.4-19.4-19.4s-19.4,8.6-19.4,19.4
		v30.2v25.9v30.2C754.9,560.4,763.5,569,774.3,569z"/>
	<rect x="679.5" y="877.2" fill="#020203" width="77.6" height="77.6"/>
	<path fill="#020203" d="M832.5,500.1v49.6c0,32.3-25.9,58.2-58.2,58.2c-32.3,0-58.2-25.9-58.2-58.2v-58.2H485.5v58.2
		c0,32.3-25.9,58.2-58.2,58.2s-58.2-25.9-58.2-58.2v-49.6c-45.3,15.1-77.6,58.2-77.6,107.7v383.6c0,64.6,51.7,116.4,114.2,116.4
		h383.6c64.6,0,114.2-51.7,114.2-116.4V607.8C910.1,558.3,877.7,515.2,832.5,500.1z M832.5,993.5c0,21.5-17.2,38.8-38.8,38.8H410.1
		c-21.5,0-38.8-17.2-38.8-38.8V685.4h461.2L832.5,993.5L832.5,993.5z"/>
	<rect x="448.9" y="877.2" fill="#020203" width="77.6" height="77.6"/>
	<rect x="448.9" y="763" fill="#020203" width="77.6" height="77.6"/>
	<rect x="563.1" y="763" fill="#020203" width="77.6" height="77.6"/>
	<rect x="563.1" y="877.2" fill="#020203" width="77.6" height="77.6"/>
</g>
</svg>
