<?xml version="1.0" encoding="utf-8"?>
<!-- Generator: Adobe Illustrator 17.1.0, SVG Export Plug-In . SVG Version: 6.00 Build 0)  -->
<!DOCTYPE svg PUBLIC "-//W3C//DTD SVG 1.1//EN" "http://www.w3.org/Graphics/SVG/1.1/DTD/svg11.dtd">
<svg version="1.1" id="Layer_1" xmlns="http://www.w3.org/2000/svg" xmlns:xlink="http://www.w3.org/1999/xlink" x="0px" y="0px"
	 viewBox="285.6 463.4 612.4 613.5" enable-background="new 285.6 463.4 612.4 613.5" xml:space="preserve">
<path fill="#060304" d="M881.5,977.3L754.1,849.9c23.4-38.1,38.1-83.5,38.1-133.2c0-140.6-112.7-253.3-253.3-253.3
	c-140.6,0-253.3,112.7-253.3,253.3c0,140.6,112.7,253.3,253.3,253.3c48.3,0,93.7-14.6,133.2-38.1l127.4,127.4
	c23.4,23.4,60,23.4,82,0C903.5,1037.3,903.5,1000.7,881.5,977.3z M382.2,716.7c0-86.4,70.3-155.2,155.2-155.2
	c86.4,0,155.2,70.3,155.2,155.2c0,86.4-70.3,155.2-155.2,155.2S382.2,803,382.2,716.7z"/>
</svg>
