<?xml version="1.0" encoding="utf-8"?>
<!-- Generator: Adobe Illustrator 17.1.0, SVG Export Plug-In . SVG Version: 6.00 Build 0)  -->
<!DOCTYPE svg PUBLIC "-//W3C//DTD SVG 1.1//EN" "http://www.w3.org/Graphics/SVG/1.1/DTD/svg11.dtd">
<svg version="1.1" id="Layer_1" xmlns="http://www.w3.org/2000/svg" xmlns:xlink="http://www.w3.org/1999/xlink" x="0px" y="0px"
	 viewBox="280.7 464.5 612.1 604.8" enable-background="new 280.7 464.5 612.1 604.8" xml:space="preserve">
<g>
	<path fill="#030202" d="M592.1,513.8c105.8,0,97.4,73.3,97.4,73.3h49.3c0,0-2.4-122.6-146.7-122.6S445.4,587.1,445.4,587.1h49.3
		C493.5,587.1,486.3,513.8,592.1,513.8z"/>
	<path fill="#030202" d="M825.4,612.4H348c-62.5,0-67.3,18-67.3,67.3V1002c0,50.5,4.8,67.3,67.3,67.3h477.3
		c62.5,0,67.3-18,67.3-67.3V679.7C893.9,630.4,887.9,612.4,825.4,612.4z M892.7,779.5l-280.1,63.7v42.1h-52.9V842l-275.3-61.3v-34.9
		l275.3,62.5v-40.9h52.9v42.1h-48.1h2.4h46.9l278.9-63.7L892.7,779.5L892.7,779.5z"/>
</g>
</svg>
