<?xml version="1.0" encoding="utf-8"?>
<!-- Generator: Adobe Illustrator 17.1.0, SVG Export Plug-In . SVG Version: 6.00 Build 0)  -->
<!DOCTYPE svg PUBLIC "-//W3C//DTD SVG 1.1//EN" "http://www.w3.org/Graphics/SVG/1.1/DTD/svg11.dtd">
<svg version="1.1" id="Layer_1" xmlns="http://www.w3.org/2000/svg" xmlns:xlink="http://www.w3.org/1999/xlink" x="0px" y="0px"
	 viewBox="0 0 35 35" enable-background="new 0 0 35 35" xml:space="preserve">
<g>
	<path fill-rule="evenodd" clip-rule="evenodd" fill="#0D0607" d="M21.1,30.3c0,0-0.6,4.7-3.1,4.7h-0.9c-2.1,0-3.2-4.9-3.2-4.9"/>
	<path fill-rule="evenodd" clip-rule="evenodd" fill="#0D0607" d="M21.1,4.9c0,0-0.6-4.9-3.1-4.9h-0.9c-2.1,0-3.2,4.9-3.2,4.9"/>
	<path fill-rule="evenodd" clip-rule="evenodd" fill="#0D0607" d="M30.3,13.9c0,0,4.7,0.6,4.7,3.1v0.9c0,2.1-4.9,3.2-4.9,3.2"/>
	<path fill-rule="evenodd" clip-rule="evenodd" fill="#0D0607" d="M4.9,13.9c0,0-4.9,0.6-4.9,3.1v0.9c0,2.1,4.9,3.2,4.9,3.2"/>
	<path fill-rule="evenodd" clip-rule="evenodd" fill="#0D0607" d="M11,29.1c0,0-3.7,2.9-5.5,1.1l-0.8-0.6c-1.5-1.5,1.3-5.7,1.3-5.7"
		/>
	<path fill-rule="evenodd" clip-rule="evenodd" fill="#0D0607" d="M28.9,11.1c0,0,3.1-3.9,1.4-5.6l-0.8-0.8C28,3.2,23.9,6,23.9,6"/>
	<path fill-rule="evenodd" clip-rule="evenodd" fill="#0D0607" d="M29.1,24c0,0,2.9,3.6,1.2,5.4l-0.9,0.9c-1.5,1.5-5.5-1.4-5.5-1.4"
		/>
	<path fill-rule="evenodd" clip-rule="evenodd" fill="#0D0607" d="M11.1,6.1c0,0-3.9-3.1-5.6-1.3L4.6,5.4C3.2,6.9,6,11.1,6,11.1"/>
	<path fill-rule="evenodd" clip-rule="evenodd" fill="#0D0607" d="M17.5,4.2c7.3,0,13.3,6,13.3,13.3c0,7.3-6,13.3-13.3,13.3
		c-7.3,0-13.3-6-13.3-13.3C4.3,10.1,10.2,4.2,17.5,4.2z M17.4,11.2c3.5,0,6.4,2.8,6.4,6.3c0,3.5-2.9,6.3-6.4,6.3s-6.3-2.9-6.3-6.3
		C11.1,14,13.9,11.2,17.4,11.2z"/>
	<path fill-rule="evenodd" clip-rule="evenodd" fill="#0D0607" d="M17.5,14c1.9,0,3.5,1.6,3.5,3.5c0,1.9-1.6,3.5-3.5,3.5
		c-1.9,0-3.5-1.6-3.5-3.5C13.9,15.6,15.5,14,17.5,14z"/>
</g>
</svg>
