<?xml version="1.0" encoding="utf-8"?>
<!-- Generator: Adobe Illustrator 17.1.0, SVG Export Plug-In . SVG Version: 6.00 Build 0)  -->
<!DOCTYPE svg PUBLIC "-//W3C//DTD SVG 1.1//EN" "http://www.w3.org/Graphics/SVG/1.1/DTD/svg11.dtd">
<svg version="1.1" id="Layer_1" xmlns="http://www.w3.org/2000/svg" xmlns:xlink="http://www.w3.org/1999/xlink" x="0px" y="0px"
	 viewBox="289.8 409 612.1 704.6" enable-background="new 289.8 409 612.1 704.6" xml:space="preserve">
<g>
	<path fill="#030202" d="M597.8,1113.6c-171.1,0-308-138.9-308-308c0-122.8,72.5-227.5,175.1-275.8v100.7
		c-52.3,40.3-88.6,102.7-88.6,175.1c0,120.8,98.6,219.4,219.4,219.4s219.4-98.6,219.4-219.4c0-72.5-34.2-134.9-88.6-175.1V529.8
		c104.7,50.3,175.1,155,175.1,275.8C905.8,976.7,766.9,1113.6,597.8,1113.6z M642.1,717c0,24.2-20.1,44.3-44.3,44.3
		s-44.3-20.1-44.3-44.3V453.3c0-24.2,20.1-44.3,44.3-44.3s44.3,20.1,44.3,44.3V717z"/>
</g>
</svg>
