<?xml version="1.0" encoding="utf-8"?>
<!-- Generator: Adobe Illustrator 17.1.0, SVG Export Plug-In . SVG Version: 6.00 Build 0)  -->
<!DOCTYPE svg PUBLIC "-//W3C//DTD SVG 1.1//EN" "http://www.w3.org/Graphics/SVG/1.1/DTD/svg11.dtd">
<svg version="1.1" id="Layer_1" xmlns="http://www.w3.org/2000/svg" xmlns:xlink="http://www.w3.org/1999/xlink" x="0px" y="0px"
	 viewBox="280.7 528.6 611.5 483.8" enable-background="new 280.7 528.6 611.5 483.8" xml:space="preserve">
<path fill="#040407" d="M887.6,560.7c0-8.1-5.8-17.4-15-24.3s-19.7-9.3-27.8-6.9L657.3,585c-3.5,1.2-5.8,2.3-8.1,4.6
	c-2.3,2.3-3.5,6.9-2.3,10.4c1.2,8.1,6.9,16.2,15,22l56.7,41.6l-82.1,143.5L495.4,693.7c-19.7-19.7-54.4-17.4-75.2,4.6
	c-8.1,8.1-12.7,18.5-15,27.8L289.5,927.4c-16.2,23.1-9.3,55.5,16.2,74c25.5,17.4,59,13.9,75.2-9.3l98.3-170.1l122.6,99.5
	c4.6,6.9,9.3,13.9,17.4,18.5c19.7,13.9,45.1,13.9,62.5,2.3c4.6-2.3,10.4-5.8,13.9-10.4c9.3-9.3,13.9-20.8,16.2-32.4l98.3-170.1
	l45.1,32.4c8.1,5.8,18.5,9.3,25.5,6.9c4.6-1.2,6.9-2.3,9.3-5.8c2.3-2.3,2.3-5.8,2.3-9.3L887.6,560.7z"/>
</svg>
