<?xml version="1.0" encoding="utf-8"?>
<!-- Generator: Adobe Illustrator 17.1.0, SVG Export Plug-In . SVG Version: 6.00 Build 0)  -->
<!DOCTYPE svg PUBLIC "-//W3C//DTD SVG 1.1//EN" "http://www.w3.org/Graphics/SVG/1.1/DTD/svg11.dtd">
<svg version="1.1" id="Layer_1" xmlns="http://www.w3.org/2000/svg" xmlns:xlink="http://www.w3.org/1999/xlink" x="0px" y="0px"
	 viewBox="274.6 514.5 612 502.8" enable-background="new 274.6 514.5 612 502.8" xml:space="preserve">
<g>
	<path fill="#030202" d="M715.2,957.9c-114,0-205.9-91.9-205.9-205.9c0-79.5,45-147.5,110.1-182c-27.8-32.6-67-55.5-106.3-55.5
		c-69.9,0-141.7,71.8-141.7,146.5c0,90,45,114,88.1,159c-113,15.3-184.8,120.7-184.8,197.3h504.7c0-20.1-6.7-42.1-19.2-64.2
		C745.8,956,730.5,957.9,715.2,957.9z"/>
	<path fill="#030202" d="M715.2,580.6c-94.8,0-171.4,76.6-171.4,171.4s76.6,171.4,171.4,171.4S886.6,846.8,886.6,752
		S810,580.6,715.2,580.6z M788.9,775h-46v46c0,13.4-11.5,23.9-25.9,23.9s-25.9-10.5-25.9-23.9v-46h-46c-13.4,0-23.9-11.5-23.9-25.9
		s10.5-25.9,23.9-25.9h46v-46c0-13.4,11.5-23.9,25.9-23.9s25.9,10.5,25.9,23.9v46h46c13.4,0,23.9,11.5,23.9,25.9
		C811.9,762.5,801.4,775,788.9,775z"/>
</g>
</svg>
