<?xml version="1.0" encoding="utf-8"?>
<!-- Generator: Adobe Illustrator 17.1.0, SVG Export Plug-In . SVG Version: 6.00 Build 0)  -->
<!DOCTYPE svg PUBLIC "-//W3C//DTD SVG 1.1//EN" "http://www.w3.org/Graphics/SVG/1.1/DTD/svg11.dtd">
<svg version="1.1" id="Layer_1" xmlns="http://www.w3.org/2000/svg" xmlns:xlink="http://www.w3.org/1999/xlink" x="0px" y="0px"
	 viewBox="274.5 496.8 612 534.3" enable-background="new 274.5 496.8 612 534.3" xml:space="preserve">
<g>
	<path fill="#0A0505" d="M521.8,747.9c-18-9.5-38.8-17.1-62.5-25.6V617.2c24.6,2.8,45.5,12.3,68.2,31.3l52.1-55.9
		c-31.3-25.6-67.3-41.7-120.3-44.5v-51.2h-44.5v52.1c-76.7,9.5-126,64.4-126,116.5c0,73.9,53.1,105.2,125.1,130.7v101.4
		c-31.3-6.6-63.5-25.6-86.2-44.5l-53.1,57.8c34.1,29.4,80.5,54,139.3,57.8v62.5h45.5v-63.5c47.4-6.6,86.2-28.4,108-59.7
		c-30.3-35.1-48.3-80.5-48.3-130.7C518.9,766.8,519.9,757.4,521.8,747.9z M417.6,706.2c-24.6-11.4-36.9-23.7-36.9-44.5
		c0-19.9,12.3-36,36.9-42.6V706.2z M457.3,896.6v-85.3c24.6,11.4,37.9,23.7,37.9,44.5C494.3,875.8,481,890.9,457.3,896.6z"/>
	<path fill="#0A0505" d="M719.8,609.6c-91.9,0-166.7,74.8-166.7,166.7s74.8,166.7,166.7,166.7s166.7-74.8,166.7-166.7
		S811.7,609.6,719.8,609.6z M790.8,798.1h-42.6v46.4c0,12.3-11.4,22.7-25.6,22.7c-14.2,0-25.6-10.4-25.6-22.7v-46.4h-48.3
		c-12.3,0-22.7-11.4-22.7-25.6s10.4-25.6,22.7-25.6H697v-44.5c0-12.3,11.4-22.7,25.6-22.7s25.6,10.4,25.6,22.7v44.5h42.6
		c12.3,0,22.7,11.4,22.7,25.6C813.6,786.7,803.1,798.1,790.8,798.1z"/>
</g>
</svg>
