<?xml version="1.0" encoding="utf-8"?>
<!-- Generator: Adobe Illustrator 17.1.0, SVG Export Plug-In . SVG Version: 6.00 Build 0)  -->
<!DOCTYPE svg PUBLIC "-//W3C//DTD SVG 1.1//EN" "http://www.w3.org/Graphics/SVG/1.1/DTD/svg11.dtd">
<svg version="1.1" id="Layer_1" xmlns="http://www.w3.org/2000/svg" xmlns:xlink="http://www.w3.org/1999/xlink" x="0px" y="0px"
	 viewBox="2.1 0 612 741.5" enable-background="new 2.1 0 612 741.5" xml:space="preserve">
<path fill="#07070E" d="M611.6,198.1l-27.9-40.6c-5.1-7.6-15.2-12.7-25.4-12.7h-66V86.3c0-7.6-5.1-20.3-10.2-27.9l-48.2-48.2
	C428.7,5.1,416,0,405.9,0H207.8c-7.6,0-20.3,5.1-27.9,10.2l-43.2,43.2c-5.1,5.1-10.2,17.8-10.2,27.9v60.9H58
	c-7.6,0-20.3,5.1-25.4,12.7L4.6,195.5c-5.1,7.6-2.5,12.7,7.6,12.7h48.2v518c0,7.6,7.6,15.2,15.2,15.2h469.8
	c7.6,0,15.2-7.6,15.2-15.2v-518h43.2C614.1,210.8,616.6,205.7,611.6,198.1z M195.1,111.7c0-7.6,5.1-20.3,10.2-27.9l5.1-5.1
	c5.1-5.1,17.8-10.2,27.9-10.2h142.2c7.6,0,20.3,5.1,27.9,10.2l7.6,7.6c5.1,5.1,10.2,17.8,10.2,27.9v25.4v2.5H195.1v-2.5V111.7z
	 M225.6,619.6c0,7.6-7.6,15.2-15.2,15.2H190c-7.6,0-15.2-7.6-15.2-15.2V274.3c0-7.6,7.6-15.2,15.2-15.2h20.3
	c7.6,0,15.2,7.6,15.2,15.2V619.6z M334.8,619.6c0,7.6-7.6,15.2-15.2,15.2h-20.3c-7.6,0-15.2-7.6-15.2-15.2V274.3
	c0-7.6,7.6-15.2,15.2-15.2h20.3c7.6,0,15.2,7.6,15.2,15.2V619.6z M446.5,619.6c0,7.6-7.6,15.2-15.2,15.2h-20.3
	c-7.6,0-15.2-7.6-15.2-15.2V274.3c0-7.6,7.6-15.2,15.2-15.2h20.3c7.6,0,15.2,7.6,15.2,15.2V619.6z"/>
</svg>
